<?xml version="1.0" standalone="no"?>
<!DOCTYPE svg PUBLIC "-//W3C//DTD SVG 20010904//EN"
 "http://www.w3.org/TR/2001/REC-SVG-20010904/DTD/svg10.dtd">
<svg version="1.0" xmlns="http://www.w3.org/2000/svg"
 width="1024.000000pt" height="1024.000000pt" viewBox="0 0 1024.000000 1024.000000"
 preserveAspectRatio="xMidYMid meet">
<metadata>
Created by potrace 1.11, written by Peter Selinger 2001-2013
</metadata>
<g transform="translate(0.000000,1024.000000) scale(0.100000,-0.100000)"
fill="#000000" stroke="none">
<path d="M0 5120 l0 -5120 5120 0 5120 0 0 5120 0 5120 -5120 0 -5120 0 0
-5120z m1430 4760 l0 -50 -100 0 -100 0 0 50 0 50 100 0 100 0 0 -50z m3080 0
l0 -50 -615 0 -615 0 0 50 0 50 615 0 615 0 0 -50z m2560 0 l0 -50 -615 0
-615 0 0 50 0 50 615 0 615 0 0 -50z m1940 0 l0 -50 -50 0 -50 0 0 50 0 50 50
0 50 0 0 -50z m-8600 -970 l0 -100 -50 0 -50 0 0 100 0 100 50 0 50 0 0 -100z
m9520 -55 l0 -155 -50 0 -50 0 0 155 0 155 50 0 50 0 0 -155z m-9520 -2510 l0
-615 -50 0 -50 0 0 615 0 615 50 0 50 0 0 -615z m9520 0 l0 -615 -50 0 -50 0
0 615 0 615 50 0 50 0 0 -615z m-4500 -50 l0 -155 -205 0 -205 0 0 155 0 155
205 0 205 0 0 -155z m820 -1325 l0 -50 50 0 50 0 0 -260 0 -260 -50 0 -50 0 0
-50 0 -50 -260 0 -260 0 0 50 0 50 -50 0 -50 0 0 260 0 260 50 0 50 0 0 50 0
50 260 0 260 0 0 -50z m-5840 -1235 l0 -665 -50 0 -50 0 0 665 0 665 50 0 50
0 0 -665z m9520 50 l0 -615 -50 0 -50 0 0 615 0 615 50 0 50 0 0 -615z m-4810
-255 l0 -50 50 0 50 0 0 -460 0 -460 -460 0 -460 0 0 50 0 50 -50 0 -50 0 0
205 0 205 50 0 50 0 0 50 0 50 50 0 50 0 0 55 0 55 55 0 55 0 0 50 0 50 50 0
50 0 0 50 0 50 50 0 50 0 0 50 0 50 205 0 205 0 0 -50z m4810 -2200 l0 -100
-50 0 -50 0 0 100 0 100 50 0 50 0 0 -100z m-9520 -50 l0 -50 -50 0 -50 0 0
50 0 50 50 0 50 0 0 -50z m1640 -920 l0 -50 -410 0 -410 0 0 50 0 50 410 0
410 0 0 -50z m5020 0 l0 -50 -1895 0 -1895 0 0 50 0 50 1895 0 1895 0 0 -50z
m1940 0 l0 -50 -360 0 -360 0 0 50 0 50 360 0 360 0 0 -50z"/>
</g>
</svg>
